<svg xmlns="http://www.w3.org/2000/svg" viewBox="0 0 64 64"><path d="M46.09 19q-.53-.55-1.08-1.08A22 22 0 1 0 46.09 19zM31 52h-2a18 18 0 0 1-17-17v-2a18 18 0 0 1 17-17h2a18 18 0 0 1 17 17v2a18 18 0 0 1-17 17z"/><path d="M30 15a19 19 0 1 0 19 19 19 19 0 0 0-19-19zm17 19v1a17 17 0 0 1-16 16h-2a17 17 0 0 1-16-16v-2a17 17 0 0 1 16-16h2a17 17 0 0 1 16 16v1z"/><path d="M30 15a19 19 0 1 0 19 19 19 19 0 0 0-19-19zm17 19v1a17 17 0 0 1-16 16h-2a17 17 0 0 1-16-16v-2a17 17 0 0 1 16-16h2a17 17 0 0 1 16 16v1zM51 7a6 6 0 1 0 6 6 6 6 0 0 0-6-6zm0 10a3.91 3.91 0 0 1-2.08-.59 3.85 3.85 0 0 1-1.33-1.33A3.91 3.91 0 0 1 47 13a4 4 0 1 1 4 4z"/><path d="M46 19a1 1 0 0 1-.71-.29 1 1 0 0 1 0-1.42l2-2a1 1 0 0 1 1.42 1.42l-2 2A1 1 0 0 1 46 19zM37.18 41.68l-8.94-4 4.94-4.94 4 8.94zM31.76 31.32l-4.94 4.94-4-8.94 8.94 4zM30 20a1 1 0 0 1-1-1v-3a1 1 0 0 1 2 0v3a1 1 0 0 1-1 1zM30 53a1 1 0 0 1-1-1v-3a1 1 0 0 1 2 0v3a1 1 0 0 1-1 1zM15 35h-3a1 1 0 0 1 0-2h3a1 1 0 0 1 0 2zM48 35h-3a1 1 0 0 1 0-2h3a1 1 0 0 1 0 2z"/></svg>