<svg xmlns="http://www.w3.org/2000/svg" viewBox="0 0 200 200" xml:space="preserve"><path fill="#282828" d="M100.382 157.898c-20.1 0-36.4-17.1-36.4-38.2 0-24.4 32.7-75.5 33-76 .4-.6 1.4-2.2 3.2-2.2h.4c1.7 0 2.6.9 3.1 1.7.3.5 33 52.1 32.9 76.6 0 21-16.3 38.1-36.2 38.1zm.1-112.3c-.1.1-.1.2-.2.3-.3.5-32.3 50.9-32.3 73.8 0 18.9 14.5 34.2 32.3 34.2h.1c17.8 0 32.2-15.3 32.3-34.1 0-19.2-23-59.8-32.2-74.2z"/><path fill="#282828" d="M83.282 134.998c-.7 0-1.5-.4-1.8-1.1-2.3-4.9-3.5-10.2-3.5-15.7 0-13.3 10.4-35.2 19.2-51.2.5-1 1.7-1.3 2.7-.8s1.3 1.7.8 2.7c-12.2 22.3-18.7 39.4-18.7 49.3 0 5 1.1 9.6 3.1 13.9.5 1 .1 2.2-.9 2.7-.3.1-.6.2-.9.2z"/></svg>