<svg xmlns="http://www.w3.org/2000/svg" viewBox="0 0 180 251.8" style="enable-background:new 0 0 180 251.8" xml:space="preserve"><style>.st4,.st6,.st7,.st8{fill:#fff;stroke:#0561fc;stroke-width:10.0091}.st6,.st7,.st8{fill:#c5e1f9}.st7,.st8{fill:none}.st8{fill:#9ac7f7}</style><g id="Layer_4"><path class="st6" d="M167.5 112.9c0 23.5-19 42.6-42.5 42.6s-42.5-19.1-42.5-42.6V98.7c0-23.5 19-42.6 42.5-42.6s42.5 19.1 42.5 42.6v14.2z"/><path class="st4" d="M175 99.5c0 8.5-8 15.3-17.9 15.3-9.9 0-17.9-6.8-17.9-15.3s8-15.3 17.9-15.3c9.9 0 17.9 6.9 17.9 15.3zM98.2 225.2c-12.7 0-22.9-10.3-22.9-23V79.3c0-12.7 10.3-23 22.9-23 12.7 0 22.9 10.3 22.9 23v122.9c0 12.7-10.3 23-22.9 23z"/><path class="st4" d="M154.8 92.6c0 32.9-26.6 59.6-59.4 59.6S36 125.5 36 92.6V67.5C36 34.6 62.6 7.9 95.4 7.9s59.4 26.7 59.4 59.6v25.1z"/><path class="st4" d="M82.2 123.9c2.9 5 7.5 8.2 12.8 8.2 5.3 0 10-3.2 12.8-8.2"/><path class="st8" d="M26 251.8v-47c0-10.9 8.8-19.8 19.8-19.8h102.5c10.9 0 19.8 8.9 19.8 19.8v47"/><path class="st7" d="M136.6 86.3c-6.1 6.1-15.9 6.1-21.9 0"/><path class="st6" d="M21.7 80.4V158h10.8c33.1 0 60-44.5 60-77.7v-75C53 7.5 21.7 40.3 21.7 80.4z"/><path class="st7" d="M0 158h10.1c30.8 0 55.8-26.9 55.8-60.1"/><path class="st6" d="M98.3 5.3v5.5c4.7 37.7 33.7 67.8 70.8 74.1v-4.5c0-40.1-31.3-72.9-70.8-75.1z"/><path class="st8" d="M126.3 198.9c0 2.8-2.2 5-5 5H74.7c-2.8 0-5-2.2-5-5v-22.5c0-2.8 2.2-5 5-5h46.7c2.8 0 5 2.2 5 5v22.5z"/><path class="st7" d="M87.5 202.2V183"/></g></svg>